<?xml version="1.0" standalone="no"?>
<!DOCTYPE svg PUBLIC "-//W3C//DTD SVG 20010904//EN"
 "http://www.w3.org/TR/2001/REC-SVG-20010904/DTD/svg10.dtd">
<svg version="1.0" xmlns="http://www.w3.org/2000/svg"
 width="700.000000pt" height="700.000000pt" viewBox="0 0 700.000000 700.000000"
 preserveAspectRatio="xMidYMid meet">
<metadata>
Created by potrace 1.14, written by Peter Selinger 2001-2017
</metadata>
<g transform="translate(0.000000,700.000000) scale(0.100000,-0.100000)"
fill="#000000" stroke="none">
<path d="M3190 5659 c-14 -6 -40 -24 -57 -42 -30 -28 -33 -36 -33 -92 0 -80
-15 -133 -188 -659 -118 -360 -151 -450 -167 -457 -11 -4 -46 -15 -78 -25 -32
-9 -82 -34 -111 -54 l-52 -37 -399 182 -400 181 -11 86 c-19 141 -82 230 -203
287 -47 22 -70 26 -141 26 -73 0 -93 -4 -141 -28 -69 -33 -132 -99 -167 -175
-55 -116 -28 -262 67 -364 99 -108 263 -143 383 -82 18 9 56 34 84 55 l51 39
400 -182 400 -182 16 -95 16 -96 -39 -50 c-22 -27 -198 -208 -392 -402 l-353
-352 -75 26 c-65 22 -87 25 -162 20 -77 -4 -99 -10 -174 -46 l-86 -41 -211
152 c-310 222 -447 329 -511 400 -85 93 -120 107 -184 68 -67 -41 -91 -124
-52 -187 23 -39 53 -59 102 -67 45 -8 168 -88 501 -325 l247 -176 -2 -135 -3
-135 39 -82 c28 -59 36 -86 29 -95 -6 -7 -131 -175 -278 -373 -309 -414 -351
-462 -407 -471 -50 -8 -86 -37 -109 -88 -61 -134 45 -278 186 -252 68 13 134
102 135 181 1 71 296 508 514 762 106 124 134 144 185 132 83 -19 175 -7 307
42 l61 23 219 -169 c120 -92 237 -183 259 -201 l40 -33 0 -113 c0 -101 3 -119
26 -168 56 -120 175 -200 309 -208 131 -7 225 46 292 165 l30 53 96 30 c54 16
356 93 672 170 316 77 661 161 766 187 l192 47 55 -51 c86 -78 134 -97 242
-97 50 1 102 2 117 4 39 4 134 -67 283 -212 127 -123 242 -252 288 -323 14
-22 28 -60 32 -85 18 -110 163 -173 258 -111 50 33 71 71 75 135 6 103 -47
167 -146 180 -30 4 -65 17 -89 35 -21 15 -151 138 -288 273 l-249 245 18 61
c46 152 -21 319 -154 387 -25 13 -51 30 -58 37 -7 9 -15 99 -21 244 -32 746
-43 1054 -37 1078 3 14 12 26 19 26 24 0 122 52 163 86 l42 34 259 -116 c560
-252 564 -255 804 -655 125 -209 239 -420 239 -442 0 -34 41 -97 80 -123 54
-36 102 -29 148 21 28 30 32 42 32 87 0 61 -26 112 -66 130 -16 7 -54 54 -94
113 -75 112 -285 459 -350 578 l-42 78 28 40 c51 75 320 304 368 314 11 2 37
6 57 10 53 8 113 56 139 110 56 116 -14 252 -146 279 -70 15 -175 -37 -210
-106 -8 -16 -18 -62 -21 -101 l-5 -72 -137 -135 c-75 -75 -154 -144 -175 -154
-72 -34 -120 -18 -568 183 l-263 118 -11 86 c-7 49 -21 105 -34 129 -74 145
-254 220 -405 170 -33 -11 -74 -26 -92 -33 -32 -13 -33 -12 -285 155 -383 256
-862 581 -966 658 -51 38 -102 84 -113 103 -32 54 -100 77 -159 54z m988 -855
l392 -261 3 -129 c2 -123 3 -132 32 -183 19 -35 53 -73 92 -104 34 -27 65 -57
68 -66 12 -31 59 -1290 49 -1328 -9 -38 -64 -87 -90 -81 -7 2 -194 145 -415
318 -222 173 -594 465 -828 648 l-426 333 0 102 c0 116 -13 156 -84 249 l-41
54 170 510 c94 280 172 515 175 521 4 13 76 -33 903 -583z m-392 -1643 l836
-655 -6 -45 c-3 -25 -10 -48 -14 -52 -7 -6 -1632 -401 -1661 -403 -8 0 -30 26
-48 59 -60 105 -131 163 -235 191 -75 20 -119 17 -204 -11 -41 -14 -83 -25
-93 -25 -10 0 -38 14 -62 32 -90 65 -336 265 -400 326 l-67 62 10 43 c15 63 3
212 -21 277 l-21 55 353 353 c193 194 370 368 392 385 l39 32 126 0 c95 1 133
5 160 17 19 9 45 16 57 15 12 -1 398 -296 859 -656z"/>
</g>
</svg>
